<mxfile host="Electron" modified="2025-02-24T02:42:37.276Z" agent="Mozilla/5.0 (Windows NT 10.0; Win64; x64) AppleWebKit/537.36 (KHTML, like Gecko) draw.io/21.6.8 Chrome/114.0.5735.289 Electron/25.5.0 Safari/537.36" etag="Syw8M9z3aJ-okrc3eP-D" version="21.6.8" type="device">
  <diagram id="C5RBs43oDa-KdzZeNtuy" name="Page-1">
    <mxGraphModel dx="1658" dy="820" grid="1" gridSize="10" guides="1" tooltips="1" connect="1" arrows="1" fold="1" page="1" pageScale="1" pageWidth="827" pageHeight="1169" math="0" shadow="0">
      <root>
        <mxCell id="WIyWlLk6GJQsqaUBKTNV-0" />
        <mxCell id="WIyWlLk6GJQsqaUBKTNV-1" parent="WIyWlLk6GJQsqaUBKTNV-0" />
        <mxCell id="-wnqzfESA12hB3Il4U6F-0" value="Message Broker" style="whiteSpace=wrap;strokeWidth=2;verticalAlign=top;" vertex="1" parent="WIyWlLk6GJQsqaUBKTNV-1">
          <mxGeometry x="20" y="154" width="371" height="84" as="geometry" />
        </mxCell>
        <mxCell id="-wnqzfESA12hB3Il4U6F-1" value="Kafka Message Broker" style="whiteSpace=wrap;strokeWidth=2;" vertex="1" parent="WIyWlLk6GJQsqaUBKTNV-1">
          <mxGeometry x="125" y="179" width="171" height="34" as="geometry" />
        </mxCell>
        <mxCell id="-wnqzfESA12hB3Il4U6F-2" value="Databases" style="whiteSpace=wrap;strokeWidth=2;verticalAlign=top;" vertex="1" parent="WIyWlLk6GJQsqaUBKTNV-1">
          <mxGeometry x="92" y="410" width="549" height="84" as="geometry" />
        </mxCell>
        <mxCell id="-wnqzfESA12hB3Il4U6F-3" value="MySQL" style="whiteSpace=wrap;strokeWidth=2;" vertex="1" parent="WIyWlLk6GJQsqaUBKTNV-1">
          <mxGeometry x="127" y="435" width="63" height="34" as="geometry" />
        </mxCell>
        <mxCell id="-wnqzfESA12hB3Il4U6F-4" value="MongoDB" style="whiteSpace=wrap;strokeWidth=2;" vertex="1" parent="WIyWlLk6GJQsqaUBKTNV-1">
          <mxGeometry x="526" y="435" width="80" height="34" as="geometry" />
        </mxCell>
        <mxCell id="-wnqzfESA12hB3Il4U6F-5" value="Caching" style="whiteSpace=wrap;strokeWidth=2;verticalAlign=top;" vertex="1" parent="WIyWlLk6GJQsqaUBKTNV-1">
          <mxGeometry x="436" y="154" width="123" height="84" as="geometry" />
        </mxCell>
        <mxCell id="-wnqzfESA12hB3Il4U6F-6" value="Redis" style="whiteSpace=wrap;strokeWidth=2;" vertex="1" parent="WIyWlLk6GJQsqaUBKTNV-1">
          <mxGeometry x="471" y="179" width="53" height="34" as="geometry" />
        </mxCell>
        <mxCell id="-wnqzfESA12hB3Il4U6F-7" value="Load Balancers" style="whiteSpace=wrap;strokeWidth=2;verticalAlign=top;" vertex="1" parent="WIyWlLk6GJQsqaUBKTNV-1">
          <mxGeometry x="691" y="20" width="111" height="84" as="geometry" />
        </mxCell>
        <mxCell id="-wnqzfESA12hB3Il4U6F-8" value="ELB" style="whiteSpace=wrap;strokeWidth=2;" vertex="1" parent="WIyWlLk6GJQsqaUBKTNV-1">
          <mxGeometry x="726" y="45" width="41" height="34" as="geometry" />
        </mxCell>
        <mxCell id="-wnqzfESA12hB3Il4U6F-9" value="API Gateway" style="whiteSpace=wrap;strokeWidth=2;" vertex="1" parent="WIyWlLk6GJQsqaUBKTNV-1">
          <mxGeometry x="692" y="179" width="107" height="34" as="geometry" />
        </mxCell>
        <mxCell id="-wnqzfESA12hB3Il4U6F-10" value="Cart Service" style="whiteSpace=wrap;strokeWidth=2;" vertex="1" parent="WIyWlLk6GJQsqaUBKTNV-1">
          <mxGeometry x="515" y="307" width="102" height="34" as="geometry" />
        </mxCell>
        <mxCell id="-wnqzfESA12hB3Il4U6F-11" value="Order Management Service" style="whiteSpace=wrap;strokeWidth=2;" vertex="1" parent="WIyWlLk6GJQsqaUBKTNV-1">
          <mxGeometry x="54" y="307" width="208" height="34" as="geometry" />
        </mxCell>
        <mxCell id="-wnqzfESA12hB3Il4U6F-12" value="Product Catalog Service" style="whiteSpace=wrap;strokeWidth=2;" vertex="1" parent="WIyWlLk6GJQsqaUBKTNV-1">
          <mxGeometry x="667" y="307" width="186" height="34" as="geometry" />
        </mxCell>
        <mxCell id="-wnqzfESA12hB3Il4U6F-13" value="Payment Service" style="whiteSpace=wrap;strokeWidth=2;" vertex="1" parent="WIyWlLk6GJQsqaUBKTNV-1">
          <mxGeometry x="313" y="307" width="133" height="34" as="geometry" />
        </mxCell>
        <mxCell id="-wnqzfESA12hB3Il4U6F-14" value="Notification Service" style="whiteSpace=wrap;strokeWidth=2;" vertex="1" parent="WIyWlLk6GJQsqaUBKTNV-1">
          <mxGeometry x="903" y="307" width="157" height="34" as="geometry" />
        </mxCell>
        <mxCell id="-wnqzfESA12hB3Il4U6F-15" value="Elasticsearch" style="whiteSpace=wrap;strokeWidth=2;" vertex="1" parent="WIyWlLk6GJQsqaUBKTNV-1">
          <mxGeometry x="705" y="435" width="109" height="34" as="geometry" />
        </mxCell>
        <mxCell id="-wnqzfESA12hB3Il4U6F-16" value="Amazon SES" style="whiteSpace=wrap;strokeWidth=2;" vertex="1" parent="WIyWlLk6GJQsqaUBKTNV-1">
          <mxGeometry x="930" y="435" width="101" height="34" as="geometry" />
        </mxCell>
        <mxCell id="-wnqzfESA12hB3Il4U6F-17" value="Routes Requests" style="curved=1;startArrow=none;endArrow=block;exitX=0.004125292056074766;exitY=0.9142594569892549;entryX=0.5644090653555109;entryY=0;rounded=0;" edge="1" parent="WIyWlLk6GJQsqaUBKTNV-1" source="-wnqzfESA12hB3Il4U6F-9" target="-wnqzfESA12hB3Il4U6F-10">
          <mxGeometry relative="1" as="geometry">
            <Array as="points">
              <mxPoint x="586" y="238" />
              <mxPoint x="586" y="273" />
            </Array>
          </mxGeometry>
        </mxCell>
        <mxCell id="-wnqzfESA12hB3Il4U6F-18" value="" style="curved=1;startArrow=none;endArrow=block;exitX=0.19537595265910143;exitY=1;entryX=1.0029954176682692;entryY=0.18812211557753458;rounded=0;" edge="1" parent="WIyWlLk6GJQsqaUBKTNV-1" source="-wnqzfESA12hB3Il4U6F-9" target="-wnqzfESA12hB3Il4U6F-11">
          <mxGeometry relative="1" as="geometry">
            <Array as="points">
              <mxPoint x="664" y="238" />
              <mxPoint x="664" y="273" />
            </Array>
          </mxGeometry>
        </mxCell>
        <mxCell id="-wnqzfESA12hB3Il4U6F-19" value="" style="curved=1;startArrow=none;endArrow=block;exitX=0.452541322457721;exitY=1;entryX=0.44985093123629794;entryY=0;rounded=0;" edge="1" parent="WIyWlLk6GJQsqaUBKTNV-1" source="-wnqzfESA12hB3Il4U6F-9" target="-wnqzfESA12hB3Il4U6F-12">
          <mxGeometry relative="1" as="geometry">
            <Array as="points">
              <mxPoint x="732" y="238" />
              <mxPoint x="732" y="273" />
            </Array>
          </mxGeometry>
        </mxCell>
        <mxCell id="-wnqzfESA12hB3Il4U6F-20" value="" style="curved=1;startArrow=none;endArrow=block;exitX=0.8706243741655545;exitY=1;entryX=0.999750352443609;entryY=0.28204917445423705;rounded=0;" edge="1" parent="WIyWlLk6GJQsqaUBKTNV-1" source="-wnqzfESA12hB3Il4U6F-9" target="-wnqzfESA12hB3Il4U6F-13">
          <mxGeometry relative="1" as="geometry">
            <Array as="points">
              <mxPoint x="843" y="238" />
              <mxPoint x="843" y="273" />
            </Array>
          </mxGeometry>
        </mxCell>
        <mxCell id="-wnqzfESA12hB3Il4U6F-21" value="" style="curved=1;startArrow=none;endArrow=block;exitX=1.006388726635514;exitY=0.7821139536146873;entryX=0.49588226512738853;entryY=0;rounded=0;" edge="1" parent="WIyWlLk6GJQsqaUBKTNV-1" source="-wnqzfESA12hB3Il4U6F-9" target="-wnqzfESA12hB3Il4U6F-14">
          <mxGeometry relative="1" as="geometry">
            <Array as="points">
              <mxPoint x="981" y="238" />
            </Array>
          </mxGeometry>
        </mxCell>
        <mxCell id="-wnqzfESA12hB3Il4U6F-22" value="Uses" style="curved=1;startArrow=none;endArrow=block;exitX=0.4987170649509804;exitY=1;entryX=0.4983642578125;entryY=0;rounded=0;" edge="1" parent="WIyWlLk6GJQsqaUBKTNV-1" source="-wnqzfESA12hB3Il4U6F-10" target="-wnqzfESA12hB3Il4U6F-4">
          <mxGeometry relative="1" as="geometry">
            <Array as="points" />
          </mxGeometry>
        </mxCell>
        <mxCell id="-wnqzfESA12hB3Il4U6F-23" value="Uses" style="curved=1;startArrow=none;endArrow=block;exitX=0.5024695763221154;exitY=1;entryX=0.5002170138888888;entryY=0;rounded=0;" edge="1" parent="WIyWlLk6GJQsqaUBKTNV-1" source="-wnqzfESA12hB3Il4U6F-11" target="-wnqzfESA12hB3Il4U6F-3">
          <mxGeometry relative="1" as="geometry">
            <Array as="points" />
          </mxGeometry>
        </mxCell>
        <mxCell id="-wnqzfESA12hB3Il4U6F-24" value="Uses" style="curved=1;startArrow=none;endArrow=block;exitX=0.49898143481182794;exitY=1;entryX=0.5028490538990825;entryY=0;rounded=0;" edge="1" parent="WIyWlLk6GJQsqaUBKTNV-1" source="-wnqzfESA12hB3Il4U6F-12" target="-wnqzfESA12hB3Il4U6F-15">
          <mxGeometry relative="1" as="geometry">
            <Array as="points" />
          </mxGeometry>
        </mxCell>
        <mxCell id="-wnqzfESA12hB3Il4U6F-25" value="Sends Events" style="curved=1;startArrow=none;endArrow=block;exitX=0.3535412883695891;exitY=0;entryX=0.7613891499582289;entryY=1;rounded=0;" edge="1" parent="WIyWlLk6GJQsqaUBKTNV-1" source="-wnqzfESA12hB3Il4U6F-13" target="-wnqzfESA12hB3Il4U6F-1">
          <mxGeometry relative="1" as="geometry">
            <Array as="points">
              <mxPoint x="321" y="273" />
              <mxPoint x="321" y="238" />
            </Array>
          </mxGeometry>
        </mxCell>
        <mxCell id="-wnqzfESA12hB3Il4U6F-26" value="Emails" style="curved=1;startArrow=none;endArrow=block;exitX=0.49588226512738853;exitY=1;entryX=0.5035001547029703;entryY=0;rounded=0;" edge="1" parent="WIyWlLk6GJQsqaUBKTNV-1" source="-wnqzfESA12hB3Il4U6F-14" target="-wnqzfESA12hB3Il4U6F-16">
          <mxGeometry relative="1" as="geometry">
            <Array as="points" />
          </mxGeometry>
        </mxCell>
        <mxCell id="-wnqzfESA12hB3Il4U6F-27" value="" style="curved=1;startArrow=none;endArrow=block;exitX=0.4893292682926829;exitY=1;entryX=0.5052570093457944;entryY=0;rounded=0;" edge="1" parent="WIyWlLk6GJQsqaUBKTNV-1" source="-wnqzfESA12hB3Il4U6F-8" target="-wnqzfESA12hB3Il4U6F-9">
          <mxGeometry relative="1" as="geometry">
            <Array as="points" />
          </mxGeometry>
        </mxCell>
        <mxCell id="-wnqzfESA12hB3Il4U6F-28" value="" style="curved=1;startArrow=none;endArrow=block;exitX=0.4994103773584906;exitY=1;entryX=0.27735657749143366;entryY=0;rounded=0;" edge="1" parent="WIyWlLk6GJQsqaUBKTNV-1" source="-wnqzfESA12hB3Il4U6F-6" target="-wnqzfESA12hB3Il4U6F-10">
          <mxGeometry relative="1" as="geometry">
            <Array as="points">
              <mxPoint x="497" y="273" />
            </Array>
          </mxGeometry>
        </mxCell>
        <mxCell id="-wnqzfESA12hB3Il4U6F-29" value="Publishes" style="curved=1;startArrow=none;endArrow=block;exitX=0.17503176343636864;exitY=1;entryX=0.3670564954898712;entryY=0;rounded=0;" edge="1" parent="WIyWlLk6GJQsqaUBKTNV-1" source="-wnqzfESA12hB3Il4U6F-1" target="-wnqzfESA12hB3Il4U6F-11">
          <mxGeometry relative="1" as="geometry">
            <Array as="points">
              <mxPoint x="73" y="238" />
              <mxPoint x="73" y="273" />
            </Array>
          </mxGeometry>
        </mxCell>
        <mxCell id="-wnqzfESA12hB3Il4U6F-30" value="Subscribes" style="curved=1;startArrow=none;endArrow=block;exitX=0.48483051160888324;exitY=1;entryX=0.06355747340134321;entryY=0;rounded=0;" edge="1" parent="WIyWlLk6GJQsqaUBKTNV-1" source="-wnqzfESA12hB3Il4U6F-1" target="-wnqzfESA12hB3Il4U6F-13">
          <mxGeometry relative="1" as="geometry">
            <Array as="points">
              <mxPoint x="204" y="238" />
              <mxPoint x="204" y="273" />
            </Array>
          </mxGeometry>
        </mxCell>
      </root>
    </mxGraphModel>
  </diagram>
</mxfile>
